<?xml version="1.0" encoding="UTF-8" standalone="no"?>
<!-- Created with Inkscape (http://www.inkscape.org/) -->

<svg
   width="61.387932mm"
   height="61.387932mm"
   viewBox="0 0 61.387932 61.387932"
   version="1.1"
   id="svg5"
   inkscape:version="1.1 (c68e22c387, 2021-05-23)"
   sodipodi:docname="pokeball.svg"
   xmlns:inkscape="http://www.inkscape.org/namespaces/inkscape"
   xmlns:sodipodi="http://sodipodi.sourceforge.net/DTD/sodipodi-0.dtd"
   xmlns="http://www.w3.org/2000/svg"
   xmlns:svg="http://www.w3.org/2000/svg"
   xmlns:rdf="http://www.w3.org/1999/02/22-rdf-syntax-ns#"
   xmlns:cc="http://creativecommons.org/ns#"
   xmlns:dc="http://purl.org/dc/elements/1.1/">
  <title
     id="title7431">Pokeball</title>
  <sodipodi:namedview
     id="namedview7"
     pagecolor="#ffffff"
     bordercolor="#666666"
     borderopacity="1.0"
     inkscape:pageshadow="2"
     inkscape:pageopacity="0.0"
     inkscape:pagecheckerboard="0"
     inkscape:document-units="mm"
     showgrid="false"
     inkscape:zoom="1.4142136"
     inkscape:cx="276.47875"
     inkscape:cy="187.73685"
     inkscape:window-width="1920"
     inkscape:window-height="1001"
     inkscape:window-x="-9"
     inkscape:window-y="-9"
     inkscape:window-maximized="1"
     inkscape:current-layer="layer1" />
  <defs
     id="defs2">
    <linearGradient
       id="linearGradient3979"
       inkscape:swatch="solid">
      <stop
         style="stop-color:#ff2222;stop-opacity:1;"
         offset="0"
         id="stop3977" />
    </linearGradient>
  </defs>
  <g
     inkscape:label="Camada 1"
     inkscape:groupmode="layer"
     id="layer1"
     transform="translate(-0.1280633,-0.14488907)">
    <g
       id="g1173"
       transform="translate(-43.610855,-42.8625)">
      <circle
         style="fill:#ffffff;fill-opacity:1;stroke:#000000;stroke-width:2.5;stroke-linejoin:round"
         id="path31"
         cx="74.432884"
         cy="73.701355"
         r="29.443966" />
      <path
         style="fill:#ffffff;fill-opacity:1;stroke:#000000;stroke-width:2.5;stroke-linecap:butt;stroke-linejoin:miter;stroke-miterlimit:4;stroke-dasharray:none;stroke-opacity:1"
         d="M 44.988916,73.701355 H 103.51108"
         id="path66" />
    </g>
    <ellipse
       style="fill:#ffffff;stroke:#000000;stroke-width:2.5;stroke-linejoin:round;stroke-miterlimit:4;stroke-dasharray:none"
       id="path985"
       cx="30.822031"
       cy="30.838856"
       rx="8.1382389"
       ry="8.2296801" />
    <circle
       style="fill:#ffffff;stroke:#000000;stroke-width:2.5;stroke-linejoin:round;stroke-miterlimit:4;stroke-dasharray:none"
       id="path1089"
       cx="30.822031"
       cy="30.838856"
       r="3.2461514" />
    <path
       style="fill:#ff0000;fill-opacity:1;stroke:#ff0303;stroke-width:1;stroke-linejoin:round;stroke-miterlimit:4;stroke-dasharray:none;stroke-opacity:1"
       d="m 2.7783739,28.575692 c 0.072647,-1.260776 0.435819,-3.397755 0.835152,-4.914196 C 6.1772695,13.925827 13.902285,6.1930089 23.617676,3.6371445 c 9.719403,-2.5569227 19.994375,0.2172123 27.091611,7.3144485 1.53021,1.53021 2.85169,3.195897 4.061621,5.119558 0.783556,1.245769 2.011524,3.77594 2.516503,5.185137 0.819782,2.287693 1.44527,5.187373 1.573151,7.292935 l 0.06131,1.009457 h -9.376055 -9.376055 l -0.06498,-0.434342 c -0.107649,-0.719551 -0.499002,-1.849943 -0.932365,-2.693075 -1.231982,-2.39689 -3.304448,-4.066135 -5.972927,-4.810834 -0.778944,-0.217379 -1.024562,-0.242427 -2.377464,-0.242427 -1.360686,0 -1.596482,0.02437 -2.402366,0.248198 -3.163726,0.878731 -5.606547,3.227839 -6.584876,6.332267 -0.126793,0.402339 -0.259773,0.926981 -0.295513,1.165871 l -0.06498,0.434342 H 12.098012 2.7217319 Z"
       id="path6208" />
    <path
       style="fill:#ffffff;fill-opacity:1;stroke:#ffffff;stroke-width:1;stroke-linejoin:round;stroke-miterlimit:4;stroke-dasharray:none;stroke-opacity:1"
       d="M 26.659554,58.631581 C 22.395008,57.93533 18.582409,56.428475 15.041443,54.039745 8.2304335,49.445052 3.6173253,41.670707 2.8587331,33.50856 L 2.7334027,32.160056 h 9.3573883 9.357387 l 0.127031,0.795125 c 0.218726,1.369031 1.348764,3.439393 2.50924,4.59722 3.800086,3.791411 9.80562,3.77353 13.467657,-0.0401 1.226965,-1.277757 1.919777,-2.49519 2.39723,-4.2125 l 0.316879,-1.139745 h 9.33305 9.33305 l -0.120722,1.169304 c -0.702437,6.803763 -3.574182,12.819949 -8.342601,17.477399 -1.891561,1.847543 -2.289553,2.176423 -4.090199,3.37992 -2.924516,1.954665 -6.353275,3.393882 -9.958652,4.180133 -2.335993,0.509426 -7.417723,0.647274 -9.760587,0.264769 z"
       id="path6765" />
    <path
       style="fill:#ffffff;fill-opacity:1;stroke:#ffffff;stroke-width:0.999998;stroke-linejoin:round;stroke-miterlimit:4;stroke-dasharray:none;stroke-opacity:1"
       d="m 29.727903,37.705725 c -1.479037,-0.264621 -2.731627,-0.924216 -3.772696,-1.986643 -0.92822,-0.947263 -1.549268,-2.106183 -1.85252,-3.456934 -0.138798,-0.618223 -0.149702,-2.157958 -0.01961,-2.768105 0.965248,-4.526997 5.739955,-6.906816 9.783445,-4.876282 1.885717,0.946957 3.184676,2.646418 3.673488,4.806122 0.139803,0.61768 0.173612,1.718836 0.07356,2.395797 -0.23491,1.589452 -0.946684,2.962616 -2.115968,4.08215 -0.91309,0.874236 -2.033135,1.470829 -3.294295,1.754701 -0.47149,0.106127 -1.988675,0.136279 -2.47541,0.04919 z m 2.291837,-2.504363 c 1.610674,-0.465151 2.802072,-1.709719 3.214158,-3.357613 0.122595,-0.490249 0.109902,-1.549593 -0.02508,-2.09246 -0.261347,-1.051131 -0.945435,-2.037181 -1.832694,-2.641656 -2.448917,-1.668404 -5.860018,-0.550436 -6.809626,2.231816 -0.209781,0.614633 -0.269346,1.041951 -0.239681,1.719461 0.03058,0.698521 0.147703,1.158378 0.452665,1.777341 0.618048,1.254424 1.724763,2.111749 3.140787,2.433037 0.453249,0.102841 1.637844,0.06339 2.099463,-0.06993 z"
       id="path7191" />
    <path
       style="fill:#ffffff;fill-opacity:1;stroke:#ffffff;stroke-width:0.999998;stroke-linejoin:round;stroke-miterlimit:4;stroke-dasharray:none;stroke-opacity:1"
       d="m 30.340834,32.743856 c -0.773864,-0.217329 -1.323377,-0.82487 -1.462992,-1.61748 -0.143532,-0.814845 0.33375,-1.698159 1.11515,-2.063819 0.260204,-0.121763 0.391125,-0.152283 0.720912,-0.16805 0.501156,-0.02397 0.812279,0.05921 1.206694,0.322594 0.895175,0.597775 1.135962,1.846072 0.524708,2.720226 -0.475044,0.679362 -1.355617,1.016838 -2.104472,0.806529 z"
       id="path7230" />
  </g>
  <metadata
     id="metadata7429">
    <rdf:RDF>
      <cc:Work
         rdf:about="">
        <dc:title>Pokeball</dc:title>
      </cc:Work>
    </rdf:RDF>
  </metadata>
</svg>
